<svg width="35" height="35" viewBox="0 0 35 35" fill="none" xmlns="http://www.w3.org/2000/svg">
<g clip-path="url(#clip0)">
<path d="M34.9325 19.1166C34.6183 15.9558 33.2062 12.9759 30.9561 10.7258C29.0333 8.80302 26.6798 7.5674 24.2034 7.01799V5.28109C25.2148 5.02945 25.9666 4.1139 25.9666 3.02567C25.9666 1.74405 24.924 0.701416 23.6424 0.701416H18.7204C17.4388 0.701416 16.3962 1.74405 16.3962 3.02567C16.3962 4.11383 17.148 5.02938 18.1594 5.28109V7.02284C15.6906 7.57458 13.3448 8.80849 11.4275 10.7259C11.0079 11.1455 10.621 11.5856 10.2668 12.0431C10.2496 12.0418 10.2325 12.0405 10.215 12.0405H5.34353C4.96604 12.0405 4.65993 12.3465 4.65993 12.7241C4.65993 13.1017 4.96604 13.4077 5.34353 13.4077H9.3366C8.83538 14.2468 8.43123 15.1281 8.12361 16.0352H0.683604C0.306118 16.0352 0 16.3413 0 16.7188C0 17.0964 0.306118 17.4024 0.683604 17.4024H7.73731C7.54029 18.2672 7.42723 19.1474 7.39804 20.03H4.37507C3.99758 20.03 3.69146 20.336 3.69146 20.7136C3.69146 21.0911 3.99758 21.3972 4.37507 21.3972H7.41984C7.47754 22.2821 7.6198 23.1623 7.84668 24.0248H3.41802C3.04054 24.0248 2.73442 24.3308 2.73442 24.7084C2.73442 25.0859 3.04054 25.392 3.41802 25.392H8.28296C8.95358 27.166 10.0016 28.8287 11.4275 30.2546C13.6797 32.5068 16.6627 33.9193 19.8268 34.2319C20.2784 34.2764 20.7303 34.2985 21.1816 34.2985C23.8492 34.2985 26.4828 33.5265 28.7175 32.0713C29.0339 31.8652 29.1234 31.4417 28.9174 31.1254C28.7113 30.809 28.2878 30.7195 27.9715 30.9255C23.0798 34.1109 16.5286 33.4222 12.3942 29.2878C7.54323 24.4368 7.54323 16.5437 12.3942 11.6927C17.2452 6.84176 25.1383 6.84176 29.9893 11.6927C34.1182 15.8217 34.8107 22.3672 31.6358 27.2565C31.4302 27.5732 31.5202 27.9966 31.8368 28.2021C32.1536 28.4078 32.5769 28.3177 32.7825 28.0011C34.4788 25.3887 35.2423 22.2335 34.9325 19.1166ZM17.7634 3.02574C17.7634 2.498 18.1927 2.06869 18.7204 2.06869H23.6424C24.1701 2.06869 24.5994 2.498 24.5994 3.02574C24.5994 3.55348 24.1701 3.98279 23.6424 3.98279H23.5198H18.843H18.7204C18.1927 3.98279 17.7634 3.55341 17.7634 3.02574ZM19.5266 6.78782V5.34999H22.8361V6.78536C21.7372 6.65465 20.6254 6.65547 19.5266 6.78782Z" fill="#EFEFEF"/>
<path d="M30.4731 29.0874C30.2927 29.0874 30.117 29.1605 29.9899 29.2877C29.8621 29.4148 29.7896 29.5912 29.7896 29.771C29.7896 29.9508 29.8621 30.1271 29.9899 30.2543C30.117 30.3821 30.2927 30.4546 30.4731 30.4546C30.6529 30.4546 30.8286 30.3821 30.9564 30.2543C31.0836 30.1271 31.1567 29.9508 31.1567 29.771C31.1567 29.5912 31.0836 29.4148 30.9564 29.2877C30.8286 29.1605 30.6529 29.0874 30.4731 29.0874Z" fill="#C5C5C5"/>
<path d="M21.1916 9.8855C15.3442 9.8855 10.5869 14.6427 10.5869 20.4902C10.5869 26.3377 15.3442 31.0949 21.1916 31.0949C27.039 31.0949 31.7963 26.3377 31.7963 20.4902C31.7963 14.6427 27.039 9.8855 21.1916 9.8855ZM21.1916 29.7277C16.098 29.7277 11.9541 25.5837 11.9541 20.4902C11.9541 15.3966 16.098 11.2527 21.1916 11.2527C26.2852 11.2527 30.4291 15.3966 30.4291 20.4902C30.4291 25.5837 26.2852 29.7277 21.1916 29.7277Z" fill="#EFEFEF"/>
<path d="M25.5162 15.1992L22.1303 18.5851C21.8472 18.4451 21.5287 18.366 21.192 18.366C20.8552 18.366 20.5368 18.4451 20.2537 18.5851L18.7383 17.0697C18.4713 16.8028 18.0386 16.8028 17.7715 17.0697C17.5046 17.3367 17.5046 17.7695 17.7715 18.0365L19.2868 19.5518C19.1468 19.835 19.0678 20.1535 19.0678 20.4901C19.0678 21.6614 20.0206 22.6144 21.192 22.6144C22.3633 22.6144 23.3162 21.6614 23.3162 20.4901C23.3162 20.1535 23.2371 19.835 23.0971 19.5518L26.3836 16.2653L26.483 16.166C26.7499 15.899 26.7499 15.4662 26.483 15.1992C26.216 14.9323 25.7833 14.9323 25.5162 15.1992ZM21.192 21.2472C20.7746 21.2472 20.435 20.9076 20.435 20.4902C20.435 20.0728 20.7746 19.7332 21.192 19.7332C21.6094 19.7332 21.949 20.0728 21.949 20.4902C21.949 20.9076 21.6094 21.2472 21.192 21.2472Z" fill="#EFEFEF"/>
<path d="M28.5005 19.8147H27.8672C27.4897 19.8147 27.1836 20.1207 27.1836 20.4983C27.1836 20.8758 27.4897 21.1819 27.8672 21.1819H28.5005C28.878 21.1819 29.1841 20.8758 29.1841 20.4983C29.1841 20.1207 28.878 19.8147 28.5005 19.8147Z" fill="#EFEFEF"/>
<path d="M14.5161 19.7981H13.8828C13.5053 19.7981 13.1992 20.1041 13.1992 20.4817C13.1992 20.8592 13.5053 21.1653 13.8828 21.1653H14.5161C14.8936 21.1653 15.1997 20.8592 15.1997 20.4817C15.1997 20.1041 14.8936 19.7981 14.5161 19.7981Z" fill="#EFEFEF"/>
<path d="M21.2002 14.4978C21.5777 14.4978 21.8838 14.1917 21.8838 13.8142V13.1809C21.8838 12.8034 21.5777 12.4973 21.2002 12.4973C20.8227 12.4973 20.5166 12.8034 20.5166 13.1809V13.8142C20.5166 14.1917 20.8227 14.4978 21.2002 14.4978Z" fill="#EFEFEF"/>
<path d="M21.1836 26.4824C20.8061 26.4824 20.5 26.7885 20.5 27.166V27.7993C20.5 28.1768 20.8061 28.4829 21.1836 28.4829C21.5611 28.4829 21.8672 28.1768 21.8672 27.7993V27.166C21.8672 26.7885 21.5611 26.4824 21.1836 26.4824Z" fill="#EFEFEF"/>
<path d="M0.683594 24.0244C0.503809 24.0244 0.327441 24.0976 0.200293 24.2247C0.0731445 24.3519 0 24.5282 0 24.708C0 24.8885 0.0730762 25.0642 0.200293 25.1913C0.32751 25.3185 0.503809 25.3916 0.683594 25.3916C0.863379 25.3916 1.03975 25.3185 1.16683 25.1913C1.29397 25.0642 1.36719 24.8878 1.36719 24.708C1.36719 24.5282 1.29404 24.3519 1.16683 24.2247C1.03975 24.0976 0.863379 24.0244 0.683594 24.0244Z" fill="#EFEFEF"/>
</g>
<defs>
<clipPath id="clip0">
<rect width="35" height="35" fill="white"/>
</clipPath>
</defs>
</svg>
