<svg width="35" height="35" viewBox="0 0 35 35" fill="none" xmlns="http://www.w3.org/2000/svg">
<g clip-path="url(#clip0)">
<path d="M33.5591 14.6234L33.1089 14.2866C32.5482 13.8669 32.3492 13.124 32.6248 12.4802L32.8464 11.9635C33.2966 10.9122 33.2269 9.7413 32.6552 8.75116C32.0833 7.76076 31.1043 7.11482 29.9687 6.97944L29.4106 6.91268C28.715 6.82963 28.1711 6.2857 28.088 5.59036L28.0215 5.03201C27.8859 3.89661 27.2399 2.91742 26.2498 2.34572C25.2594 1.77375 24.0885 1.70405 23.0375 2.15453L22.5205 2.37589C21.8767 2.65173 21.1338 2.45253 20.7141 1.89177L20.3773 1.44183C19.6922 0.526196 18.6435 0.0012207 17.4999 0.0012207C16.3562 0.0012207 15.3076 0.526196 14.6224 1.44183L14.2854 1.89177C13.8656 2.4528 13.123 2.65173 12.479 2.37589L11.9623 2.15453C10.911 1.70432 9.74007 1.77375 8.74993 2.34572C7.75953 2.91742 7.11359 3.89661 6.97821 5.03201L6.91145 5.5901C6.82841 6.2857 6.28447 6.82963 5.58887 6.91268L5.03078 6.97944C3.89539 7.11482 2.9162 7.76076 2.34449 8.75116C1.77252 9.7413 1.7031 10.9122 2.1533 11.9635L2.37467 12.4802C2.65051 13.124 2.45131 13.8669 1.89055 14.2866L1.44061 14.6234C0.525242 15.3085 0 16.3574 0 17.5008C0 18.6445 0.525242 19.6934 1.44061 20.3786L1.89082 20.7153C2.45157 21.1351 2.65051 21.8779 2.37494 22.5217L2.1533 23.0384C1.7031 24.0897 1.77279 25.2606 2.34449 26.2508C2.91647 27.2412 3.89539 27.8871 5.03105 28.0225L5.58914 28.0893C6.28474 28.1723 6.82867 28.7162 6.91172 29.4116L6.97821 29.9699C7.11386 31.1053 7.7598 32.0845 8.74993 32.6562C9.74033 33.2279 10.9112 33.2976 11.9623 32.8474L12.4792 32.626C13.123 32.3502 13.8659 32.5494 14.2857 33.1102L14.6224 33.5601C15.3076 34.4757 16.3565 35.001 17.5001 35.001C18.6435 35.001 19.6924 34.4757 20.3776 33.5601L20.7143 33.1102C21.1341 32.5494 21.8767 32.3502 22.521 32.6263L23.0377 32.8474C24.0887 33.2976 25.2597 33.2282 26.2501 32.6565C27.2402 32.0845 27.8861 31.1053 28.0218 29.9699L28.0883 29.4118C28.1713 28.7162 28.7153 28.1723 29.4109 28.0893L29.9689 28.0228C31.1043 27.8871 32.0838 27.2412 32.6555 26.251C33.2272 25.2606 33.2969 24.0897 32.8464 23.0384L32.6253 22.522C32.3495 21.8779 32.5484 21.1351 33.1094 20.7153L33.5594 20.3786C34.475 19.6934 35 18.6445 35 17.5011C34.9997 16.3574 34.4745 15.3085 33.5591 14.6234ZM32.7399 19.284L32.2899 19.6208C31.2221 20.4197 30.8429 21.8341 31.3684 23.0603L31.5895 23.5768C31.8686 24.228 31.8253 24.9536 31.4712 25.5672C31.1169 26.1811 30.5102 26.5811 29.8066 26.6652L29.2485 26.7317C27.9241 26.8898 26.8888 27.9253 26.7307 29.2498L26.664 29.8078C26.5798 30.5115 26.1798 31.1181 25.5662 31.4725C24.9526 31.8266 24.2271 31.8698 23.5758 31.5908L23.0591 31.3694C21.8329 30.8442 20.4187 31.2234 19.6195 32.2912L19.2828 32.7411C18.8582 33.3083 18.2083 33.6338 17.4999 33.6338C16.7912 33.6338 16.1412 33.3083 15.7167 32.7411L15.3799 32.2912C14.8216 31.5448 13.9628 31.135 13.0779 31.135C12.6963 31.135 12.3099 31.2113 11.9406 31.3694L11.4239 31.5908C10.7724 31.8698 10.0471 31.8266 9.43325 31.4725C8.81962 31.1181 8.41962 30.5115 8.33551 29.8078L8.26902 29.2498C8.11067 27.9253 7.07541 26.89 5.75095 26.732L5.19287 26.6652C4.48925 26.5811 3.88257 26.1811 3.52822 25.5675C3.17415 24.9538 3.13089 24.2283 3.40993 23.577L3.6313 23.0603C4.15654 21.8344 3.77736 20.42 2.70979 19.6208L2.25958 19.284C1.69242 18.8595 1.36718 18.2095 1.36718 17.5008C1.36718 16.7924 1.69242 16.1425 2.25985 15.7179L2.70979 15.3812C3.77763 14.582 4.15681 13.1675 3.6313 11.9416L3.4102 11.4249C3.13116 10.7736 3.17441 10.0481 3.52849 9.43448C3.88284 8.82086 4.48952 8.42085 5.19314 8.33673L5.75122 8.26998C7.07567 8.1119 8.11094 7.07663 8.26902 5.75218L8.33577 5.19409C8.41989 4.49048 8.81989 3.88379 9.43352 3.52945C10.0471 3.1751 10.7727 3.13211 11.4239 3.41116L11.9406 3.63225C13.1666 4.1575 14.581 3.77858 15.3802 2.71074L15.7169 2.2608C16.1415 1.69364 16.7914 1.36813 17.4999 1.36813C18.2083 1.36813 18.8582 1.69364 19.2828 2.2608L19.6198 2.71101C20.4187 3.77885 21.8334 4.15776 23.0591 3.63252L23.5758 3.41116C24.2271 3.13211 24.9526 3.17537 25.5662 3.52945C26.1798 3.88379 26.5801 4.49048 26.664 5.19409L26.7307 5.75218C26.8888 7.07663 27.9243 8.1119 29.2485 8.26998L29.8066 8.33673C30.5102 8.42085 31.1169 8.82086 31.4712 9.43448C31.8256 10.0481 31.8686 10.7736 31.5898 11.4249L31.3684 11.9416C30.8432 13.1678 31.2221 14.582 32.2899 15.3812L32.7399 15.7179C33.3073 16.1425 33.6325 16.7924 33.6325 17.5011C33.6325 18.2095 33.3073 18.8595 32.7399 19.284Z" fill="white"/>
<path d="M17.4999 3.97339C15.4377 3.97339 13.4574 4.42573 11.6144 5.31787C11.2745 5.48236 11.1324 5.89117 11.2966 6.23083C11.4611 6.57076 11.8702 6.71282 12.2099 6.54833C13.8657 5.74698 15.6454 5.34057 17.4999 5.34057C24.2047 5.34057 29.6595 10.7954 29.6595 17.5004C29.6595 24.2052 24.2047 29.66 17.4999 29.66C10.7949 29.66 5.34005 24.2052 5.34005 17.5004C5.34005 14.7541 6.23326 12.1628 7.92327 10.0066C8.15612 9.70939 8.10405 9.27974 7.80685 9.04663C7.50965 8.81378 7.08 8.86612 6.84715 9.16305C4.96702 11.5626 3.97314 14.4454 3.97314 17.5004C3.97314 24.959 10.0413 31.0272 17.4999 31.0272C24.9585 31.0272 31.0267 24.959 31.0267 17.5004C31.0267 10.0416 24.9585 3.97339 17.4999 3.97339Z" fill="white"/>
<path d="M7.50537 14.0195L6.98466 14.6833C6.75154 14.9805 6.80362 15.4102 7.10055 15.643C7.39776 15.8762 7.82741 15.8243 8.06026 15.5271L8.34624 15.1629V19.684H7.88856C7.51098 19.684 7.20496 19.99 7.20496 20.3676C7.20496 20.7452 7.51098 21.0512 7.88856 21.0512H10.1476C10.5249 21.0512 10.8312 20.7452 10.8312 20.3676C10.8312 19.99 10.5249 19.684 10.1476 19.684H9.71343V14.4414C9.71343 14.0638 9.40715 13.7578 9.02984 13.7578H8.04317C7.83328 13.7578 7.63488 13.8542 7.50537 14.0195Z" fill="white"/>
<path d="M12.9985 21.0513H13.3536C14.4826 21.0513 15.4009 20.133 15.4009 19.004V15.6904C15.4009 14.5614 14.4824 13.6428 13.3536 13.6428H12.9985C11.8695 13.6428 10.9512 14.5614 10.9512 15.6904V19.004C10.9512 20.133 11.8695 21.0513 12.9985 21.0513ZM12.3184 15.6904C12.3184 15.3152 12.6236 15.01 12.9985 15.01H13.3536C13.7285 15.01 14.0338 15.3152 14.0338 15.6904V19.004C14.0338 19.3789 13.7285 19.6841 13.3536 19.6841H12.9985C12.6236 19.6841 12.3184 19.3789 12.3184 19.004V15.6904Z" fill="white"/>
<path d="M18.5074 21.0513C19.6364 21.0513 20.5547 20.133 20.5547 19.004V15.6904C20.5547 14.5614 19.6362 13.6428 18.5074 13.6428H18.1523C17.0233 13.6428 16.105 14.5614 16.105 15.6904V19.004C16.105 20.133 17.0233 21.0513 18.1523 21.0513H18.5074ZM17.4722 19.004V15.6904C17.4722 15.3152 17.7774 15.01 18.1523 15.01H18.5074C18.8823 15.01 19.1876 15.3152 19.1876 15.6904V19.004C19.1876 19.3789 18.8823 19.6841 18.5074 19.6841H18.1523C17.7774 19.6841 17.4722 19.3791 17.4722 19.004Z" fill="white"/>
<path d="M27.5347 13.5596C27.2295 13.3377 26.802 13.4053 26.5798 13.7105L22.2363 19.6837C22.0142 19.9891 22.0817 20.4167 22.3872 20.6386C22.5084 20.7267 22.6491 20.7694 22.7885 20.7694C22.9998 20.7694 23.2083 20.6717 23.3421 20.4877L27.6856 14.5145C27.9078 14.2093 27.8399 13.7818 27.5347 13.5596Z" fill="white"/>
<path d="M11.3427 10.9564C11.5021 10.9564 11.6623 10.9008 11.7918 10.7879C13.3721 9.4079 15.3991 8.64794 17.4998 8.64794C19.4651 8.64794 21.3185 9.28827 22.8598 10.4995C23.1568 10.7329 23.5864 10.6814 23.8198 10.3844C24.0529 10.0878 24.0014 9.65784 23.7047 9.42472C21.9199 8.02203 19.7743 7.28076 17.4998 7.28076C15.0685 7.28076 12.7219 8.16062 10.8928 9.75797C10.6084 10.0063 10.579 10.4381 10.8273 10.7225C10.9624 10.8774 11.152 10.9564 11.3427 10.9564Z" fill="white"/>
<path d="M11.2169 25.2365C13.0011 26.6389 15.147 27.3801 17.4215 27.3801C18.9996 27.3801 20.5105 27.0245 21.9124 26.3233C22.2499 26.1545 22.3866 25.7438 22.2178 25.406C22.0488 25.0685 21.6384 24.9318 21.3006 25.1005C20.0904 25.7062 18.7852 26.013 17.4215 26.013C15.4565 26.013 13.6028 25.3729 12.0615 24.1614C11.7648 23.9283 11.3349 23.9798 11.1018 24.2765C10.8684 24.5734 10.9199 25.0031 11.2169 25.2365Z" fill="white"/>
<path d="M24.2126 24.0675C24.0614 23.841 23.7784 23.7235 23.5111 23.7769C23.2275 23.8338 23.0043 24.0709 22.9666 24.358C22.9298 24.6368 23.0745 24.9174 23.3223 25.0499C23.5712 25.1831 23.8841 25.1465 24.0964 24.9604C24.3517 24.7358 24.3971 24.3497 24.2126 24.0675Z" fill="white"/>
<path d="M23.0522 13.4292C22.1651 13.4292 21.4434 14.1507 21.4434 15.0378C21.4434 15.9248 22.1651 16.6466 23.0522 16.6466C23.939 16.6466 24.6608 15.9248 24.6608 15.0378C24.6608 14.1507 23.939 13.4292 23.0522 13.4292ZM23.0522 15.2794C22.919 15.2794 22.8105 15.171 22.8105 15.0378C22.8105 14.9045 22.919 14.7961 23.0522 14.7961C23.1855 14.7961 23.2936 14.9045 23.2936 15.0378C23.2936 15.171 23.1855 15.2794 23.0522 15.2794Z" fill="white"/>
<path d="M25.2378 19.2038C25.2378 20.0909 25.9596 20.8127 26.8464 20.8127C27.7334 20.8127 28.4552 20.0909 28.4552 19.2038C28.4552 18.3167 27.7334 17.595 26.8464 17.595C25.9596 17.595 25.2378 18.3167 25.2378 19.2038ZM27.088 19.2038C27.088 19.3371 26.9799 19.4455 26.8466 19.4455C26.7134 19.4455 26.605 19.3371 26.605 19.2038C26.605 19.0706 26.7134 18.9622 26.8466 18.9622C26.9799 18.9622 27.088 19.0706 27.088 19.2038Z" fill="white"/>
<path d="M8.85038 7.75568C8.9604 8.01977 9.22903 8.19014 9.51475 8.17679C9.79673 8.16343 10.0445 7.97064 10.1316 7.70308C10.2194 7.43285 10.1238 7.12416 9.8974 6.95193C9.66642 6.77622 9.34385 6.76608 9.10192 6.92603C8.83222 7.10413 8.72862 7.45848 8.85038 7.75568Z" fill="white"/>
</g>
<defs>
<clipPath id="clip0">
<rect width="35" height="35" fill="white"/>
</clipPath>
</defs>
</svg>
