<svg width="40" height="40" viewBox="0 0 40 40" fill="none" xmlns="http://www.w3.org/2000/svg">
<g clip-path="url(#clip0)">
<path d="M12.2222 10.4825C11.7754 10.3245 11.2265 10.1151 10.9476 9.89647C10.9308 9.87756 10.9046 9.78147 10.94 9.65647C10.9577 9.59373 11.0157 9.44287 11.1707 9.39615C11.633 9.25686 12.2323 9.53646 12.4253 9.65647C12.7891 9.8874 13.2717 9.78092 13.5046 9.41764C13.7382 9.05334 13.6322 8.56865 13.2679 8.33506C13.1915 8.28607 12.757 8.01936 12.1643 7.87826V7.85342C12.1643 7.42061 11.8135 7.06982 11.3807 7.06982C10.9479 7.06982 10.5971 7.42061 10.5971 7.85342V7.93686C9.97616 8.17162 9.51881 8.72443 9.39006 9.40772C9.26256 10.084 9.48835 10.7434 9.9792 11.1283C10.4349 11.4858 11.0755 11.7393 11.6999 11.96C11.9796 12.0589 12.0982 12.2469 12.0525 12.5189C12.0169 12.7312 11.834 13.0911 11.3755 13.0941C10.8852 13.0983 10.7692 13.0793 10.4123 12.8458C10.0502 12.609 9.56452 12.7105 9.32764 13.0726C9.09069 13.4348 9.19233 13.9204 9.55444 14.1573C9.94655 14.4138 10.2591 14.544 10.5971 14.6072V14.6498C10.5971 15.0826 10.9479 15.4334 11.3807 15.4334C11.8135 15.4334 12.1643 15.0826 12.1643 14.6498V14.5183C12.9011 14.2429 13.4611 13.5933 13.598 12.7787C13.7698 11.7569 13.2169 10.8341 12.2222 10.4825Z" fill="black"/>
<path d="M11.4138 3.57178C7.17904 3.57178 3.73389 7.01701 3.73389 11.2517C3.73389 15.4865 7.17912 18.9316 11.4138 18.9316C15.6485 18.9316 19.0937 15.4864 19.0937 11.2517C19.0937 7.01701 15.6485 3.57178 11.4138 3.57178ZM11.4138 17.3644C8.04318 17.3644 5.30107 14.6222 5.30107 11.2517C5.30107 7.88115 8.04326 5.13896 11.4138 5.13896C14.7844 5.13896 17.5265 7.88115 17.5265 11.2517C17.5265 14.6223 14.7844 17.3644 11.4138 17.3644Z" fill="#FF2525"/>
<path d="M22.6655 11.2517C22.6655 5.0475 17.618 0 11.4138 0C5.20961 0 0.162109 5.0475 0.162109 11.2517C0.162109 13.4869 0.811797 15.6346 2.04422 17.483L1.51617 22.422C1.45664 22.9783 2.01016 23.4259 2.54266 23.2488L7.21742 21.6938C8.55172 22.2312 9.96203 22.5034 11.4139 22.5034C17.618 22.5034 22.6655 17.4559 22.6655 11.2517ZM11.4138 20.9363C10.0757 20.9363 8.7793 20.668 7.56078 20.1389C7.38367 20.062 7.18445 20.0531 7.00133 20.1141L3.20391 21.3773L3.6332 17.362C3.65344 17.1727 3.60406 16.9825 3.49437 16.827C2.33961 15.1899 1.7293 13.262 1.7293 11.2518C1.7293 5.91172 6.07375 1.56727 11.4138 1.56727C16.7538 1.56727 21.0983 5.91172 21.0983 11.2518C21.0983 16.5917 16.7538 20.9363 11.4138 20.9363Z" fill="black"/>
<path d="M37.9957 34.3046C39.2018 32.4935 39.8377 30.3895 39.8377 28.2002C39.8377 25.7969 39.0783 23.5124 37.6417 21.5938C37.3823 21.2474 36.8912 21.1769 36.5447 21.4363C36.1983 21.6957 36.1278 22.1868 36.3871 22.5333C37.6193 24.1787 38.2705 26.1382 38.2705 28.2002C38.2705 30.1647 37.674 32.0488 36.5454 33.6486C36.4357 33.8042 36.3864 33.9943 36.4066 34.1836L36.8242 38.089L33.1309 36.8606C32.9477 36.7997 32.7485 36.8085 32.5715 36.8853C31.3807 37.4024 30.1138 37.6646 28.8061 37.6646C23.5874 37.6646 19.3416 33.4189 19.3416 28.2002C19.3416 22.9814 23.5874 18.7357 28.8061 18.7357C29.554 18.7357 30.2985 18.8231 31.0187 18.9956C31.4389 19.0962 31.8625 18.8369 31.9632 18.416C32.0639 17.9951 31.8045 17.5722 31.3836 17.4714C30.5439 17.2704 29.6767 17.1685 28.8061 17.1685C22.7232 17.1685 17.7744 22.1172 17.7744 28.2001C17.7744 34.2829 22.7232 39.2317 28.8061 39.2317C30.2275 39.2317 31.6082 38.9656 32.9148 38.4402L37.4855 39.9606C38.018 40.1377 38.5714 39.6902 38.512 39.1338L37.9957 34.3046Z" fill="black"/>
<path d="M28.8658 32.4961C28.4335 32.4961 28.083 32.8466 28.083 33.2788C28.083 33.7112 28.4335 34.0616 28.8658 34.0616C29.2982 34.0616 29.6486 33.7111 29.6486 33.2788C29.6486 32.8466 29.2981 32.4961 28.8658 32.4961Z" fill="black"/>
<path d="M28.9332 22.5309C28.9109 22.5304 28.8885 22.5303 28.8662 22.5303C27.2343 22.5303 25.8443 23.7329 25.6182 25.353C25.5788 25.6347 25.5435 25.949 25.6935 26.2052C25.8196 26.4203 26.0457 26.5654 26.2938 26.5895C26.5406 26.6134 26.7881 26.5171 26.9537 26.3325C27.0343 26.2426 27.0937 26.1345 27.1258 26.0181C27.166 25.8721 27.1496 25.7189 27.1704 25.57C27.2899 24.7133 28.0317 24.0829 28.9017 24.0979C29.7943 24.1159 30.5297 24.8274 30.5759 25.7176C30.6005 26.193 30.4342 26.6442 30.1076 26.9882C29.7808 27.3324 29.3398 27.522 28.866 27.522C28.4332 27.522 28.0824 27.8728 28.0824 28.3056V30.9154C28.0824 31.3482 28.4332 31.699 28.866 31.699C29.2987 31.699 29.6496 31.3482 29.6496 30.9154V28.9931C30.2532 28.8435 30.8106 28.5238 31.2442 28.0671C31.8696 27.4084 32.1881 26.5451 32.141 25.6363C32.0524 23.9293 30.6433 22.5654 28.9332 22.5309Z" fill="black"/>
<path d="M34.9225 20.2769C35.221 19.9654 35.2105 19.4709 34.8991 19.1723C34.5876 18.8738 34.093 18.8843 33.7945 19.1958C33.4959 19.5073 33.5064 20.0018 33.8179 20.3003C34.1294 20.5989 34.6239 20.5884 34.9225 20.2769Z" fill="#FF2525"/>
</g>
<defs>
<clipPath id="clip0">
<rect width="40" height="40" fill="white"/>
</clipPath>
</defs>
</svg>
