<svg width="40" height="40" viewBox="0 0 40 40" fill="none" xmlns="http://www.w3.org/2000/svg">
<g clip-path="url(#clip0)">
<path d="M3.26868 39.9997H21.1593C21.3144 39.9997 21.4636 39.936 21.5739 39.8278L24.4849 36.9259L29.9504 37.6182L30.897 39.4427C31.0783 39.792 31.5703 39.8768 31.8516 39.5657L33.7133 37.5059C33.8169 37.3912 33.8711 37.2403 33.8639 37.0859L33.7662 34.9848C34.3402 34.5681 34.7366 33.9056 34.8273 33.2008L35.546 27.6233C36.5636 28.1033 37.806 27.4325 37.9508 26.3085L38.8784 19.1089C39.045 17.8168 38.2612 16.5376 37.0299 16.1067C37.2606 14.7126 36.4142 13.3099 34.9938 13.0135L35.9577 5.32236C36.1035 4.15945 35.2385 3.05137 34.0745 2.90571L10.9812 0.0168302C9.7945 -0.130945 8.70836 0.710873 8.55988 1.89487C8.5584 1.9069 8.55723 1.91908 8.55652 1.93119L8.16529 5.05282H3.26868C2.07273 5.05282 1.09961 6.02367 1.09961 7.21688V29.8375C1.12429 30.6043 2.24066 30.6213 2.2712 29.8375V7.21688C2.2712 6.6696 2.71866 6.2244 3.26868 6.2244H26.5423C27.0923 6.2244 27.5397 6.6696 27.5397 7.21688V31.8836H22.7426C21.5466 31.8836 20.5735 32.8544 20.5735 34.0477V38.8281H3.26868C2.71866 38.8281 2.2712 38.3829 2.2712 37.8356V32.9578C2.2712 32.6342 2.00892 32.372 1.6854 32.372C1.36189 32.372 1.09961 32.6342 1.09961 32.9578V37.8356C1.09961 39.0289 2.07265 39.9997 3.26868 39.9997ZM32.6822 36.8992L31.5482 38.1539L30.7693 36.6526L31.1997 35.2746C31.6449 35.4642 32.1365 35.5267 32.6151 35.4562L32.6822 36.8992ZM37.3899 17.7539C37.6561 18.0988 37.7721 18.5268 37.7164 18.9591L36.7887 26.1587C36.7043 26.8142 35.6627 26.6639 35.7519 26.024L35.9963 24.1281C36.0931 23.3768 34.931 23.2275 34.8343 23.9784L33.6653 33.051C33.5643 33.8343 32.8279 34.4026 32.0446 34.3017C31.2612 34.2008 30.6929 33.4643 30.7938 32.681L32.5098 19.3625L35.3813 19.7325L35.2315 20.8949C35.1347 21.6461 36.2967 21.7957 36.3935 21.0445L36.8739 17.3162C37.0721 17.4231 37.2481 17.5703 37.3899 17.7539ZM35.893 15.7613C35.7723 16.6977 35.6516 17.6341 35.5311 18.5704L32.6596 18.2004L33.0215 15.3912C33.071 15.0077 33.2668 14.6665 33.5729 14.4302C33.879 14.1939 34.2589 14.0911 34.6422 14.1404C35.4339 14.2426 35.995 14.9697 35.893 15.7613ZM26.5423 5.05282H9.34602L9.72241 2.04975C9.72374 2.03913 9.72475 2.02859 9.72553 2.01788C9.8045 1.48669 10.2973 1.11194 10.8357 1.1795L33.9289 4.06815C34.4668 4.13539 34.8626 4.6373 34.7951 5.17654L33.8099 13.0374C33.4682 13.1245 33.1446 13.2808 32.857 13.5027C32.3031 13.9302 31.9489 14.5478 31.8595 15.2416L31.4227 18.6317V18.6319L29.6317 32.5312C29.5409 33.236 29.7553 33.9781 30.2056 34.5274L29.622 36.3956L25.5358 35.878L28.5389 32.8843C28.6442 32.7659 28.7112 32.6316 28.7112 32.4694V7.21688C28.7113 6.02367 27.7383 5.05282 26.5423 5.05282ZM22.7425 33.0552H26.7081L21.7451 38.0027V34.0477C21.745 33.5005 22.1925 33.0552 22.7425 33.0552Z" fill="black"/>
<path d="M25.2279 12.9161V8.94517C25.2279 8.62158 24.9657 8.35938 24.6421 8.35938H5.08921C4.7657 8.35938 4.50342 8.62158 4.50342 8.94517V12.9161C4.50342 13.2397 4.7657 13.5019 5.08921 13.5019H24.6421C24.9657 13.5019 25.2279 13.2397 25.2279 12.9161ZM24.0563 12.3304H5.675V9.53096H24.0563V12.3304Z" fill="black"/>
<path d="M24.0887 16.5039H5.72214C4.94647 16.5308 4.9471 17.6489 5.72214 17.6755H24.0887C24.8644 17.6487 24.8638 16.5305 24.0887 16.5039Z" fill="black"/>
<path d="M24.0888 20.4883H11.9868C11.2111 20.5151 11.2117 21.6333 11.9868 21.6599H24.0888C24.8645 21.6331 24.8639 20.5148 24.0888 20.4883Z" fill="black"/>
<path d="M24.6746 25.0585C24.6746 24.7349 24.4124 24.4727 24.0888 24.4727H11.9868C11.2111 24.4995 11.2117 25.6177 11.9868 25.6442H24.0888C24.4124 25.6442 24.6746 25.382 24.6746 25.0585Z" fill="black"/>
<path d="M7.04494 25.539C6.48891 25.543 6.31528 25.515 5.88796 25.2337C5.61772 25.056 5.25453 25.1307 5.07652 25.4009C4.89868 25.6712 4.9735 26.0345 5.24375 26.2124C5.70629 26.5168 6.04808 26.6412 6.46314 26.687C6.3473 27.8701 7.80726 27.7929 7.63472 26.6288C8.48795 26.3872 9.03547 25.6452 9.15935 24.913C9.32313 23.9448 8.80147 23.0696 7.86138 22.7352C7.38759 22.5666 6.19617 22.3166 6.32957 21.6114C6.36691 21.4137 6.49867 21.1746 6.75619 21.0966C7.12446 20.9848 7.52623 21.0581 7.80241 21.2581C7.80241 21.2581 8.19591 21.8029 8.7118 21.3247C9.18926 20.8821 8.59948 20.3994 8.59948 20.3994C8.41656 20.2297 8.07735 20.0205 7.6348 19.9227C7.73806 18.7945 6.3188 18.8487 6.46321 19.963C5.80728 20.1486 5.30444 20.7271 5.17837 21.3936C5.05918 22.0239 5.26351 22.6352 5.71176 22.9891C6.08026 23.28 6.58935 23.5262 7.46875 23.839C8.0511 24.0461 8.0372 24.5224 8.00424 24.7175C7.93769 25.1104 7.60918 25.5352 7.04494 25.539Z" fill="#FF2525"/>
<path d="M5.72214 36.1325H16.6876C17.4633 36.1057 17.4627 34.9875 16.6876 34.9609H5.72214C4.94647 34.9878 4.9471 36.106 5.72214 36.1325Z" fill="black"/>
</g>
<defs>
<clipPath id="clip0">
<rect width="40" height="40" fill="white"/>
</clipPath>
</defs>
</svg>
