<svg width="40" height="40" viewBox="0 0 40 40" fill="none" xmlns="http://www.w3.org/2000/svg">
<g clip-path="url(#clip0)">
<path d="M30.0993 21.9701C31.5981 22.6341 32.5665 24.1224 32.5665 25.7614V27.7431C32.5665 28.0667 32.8289 28.3291 33.1525 28.3291C33.4761 28.3291 33.7384 28.0667 33.7384 27.7431V25.7614C33.7384 23.6592 32.4963 21.7504 30.5675 20.8958L24.2132 18.1729C24.2133 18.1569 24.2146 18.1407 24.2146 18.1248V15.5957C25.5232 14.4317 26.3498 12.7369 26.3498 10.852L26.3518 5.95631C26.3518 4.65429 25.9602 3.40258 25.2194 2.33642C24.4958 1.29494 23.4917 0.501046 22.3156 0.0403471C22.0868 -0.0491833 21.8265 0.0133943 21.6634 0.197221L20.7799 1.19385C20.2634 1.76517 19.5258 2.09283 18.7565 2.09283H17.0179C15.16 2.09283 13.6484 3.60422 13.6484 5.46201V8.62964V8.62972C13.6484 8.62972 13.6484 8.62972 13.6484 8.6298V10.8519C13.6484 12.7377 14.4757 14.4333 15.7855 15.5973V18.1248C15.7855 18.1488 15.7873 18.173 15.7878 18.197L9.51778 20.9226C7.53983 21.755 6.26172 23.6793 6.26172 25.825V27.7432C6.26172 28.0668 6.52406 28.3291 6.84765 28.3291C7.17124 28.3291 7.43358 28.0668 7.43358 27.7432V25.825C7.43358 24.1521 8.43006 22.6518 9.97864 22.0001L13.0928 20.6464C13.607 21.8912 14.4434 22.9672 15.5398 23.7834C16.8366 24.7489 18.3786 25.2593 19.9992 25.2593C21.2803 25.2593 22.5448 24.9295 23.6556 24.3054C23.812 24.2175 23.9675 24.1227 24.1176 24.0234C24.3876 23.8449 24.4617 23.4814 24.2832 23.2114C24.1047 22.9415 23.7412 22.8674 23.4712 23.0459C23.3446 23.1297 23.2136 23.2097 23.0816 23.2837C22.1456 23.8095 21.0797 24.0875 19.9991 24.0875C17.4119 24.0875 15.1301 22.5372 14.167 20.1794L15.9798 19.3915C16.5217 21.1151 18.1344 22.3389 20.0001 22.3389C21.879 22.3389 23.4951 21.1049 24.028 19.3685L25.8441 20.1468C25.6616 20.5984 25.4271 21.0279 25.1429 21.4283C24.9557 21.6922 25.0177 22.0579 25.2816 22.2452C25.3845 22.3183 25.5029 22.3533 25.6202 22.3533C25.8036 22.3533 25.9843 22.2674 26.0986 22.1065C26.4309 21.6382 26.7057 21.1361 26.921 20.6083L30.0993 21.9701ZM14.8202 10.8519V9.1619C15.0858 9.10963 15.3433 9.02003 15.5832 8.89526C15.9384 8.7105 16.2578 8.44566 16.5066 8.12925C16.7068 7.87496 16.6628 7.50653 16.4085 7.30645C16.1541 7.10622 15.7858 7.1502 15.5857 7.40457C15.439 7.59105 15.2511 7.74699 15.0424 7.85551C14.9671 7.89465 14.8926 7.92582 14.8202 7.95082V5.46201C14.8202 4.25038 15.8062 3.26469 17.0179 3.26469H18.7565C19.8565 3.26469 20.9109 2.79634 21.6531 1.97548L22.2583 1.29276C24.0458 2.1547 25.1799 3.94398 25.1799 5.95623V7.15333C24.445 7.42535 23.6714 7.56473 22.8761 7.56473C21.1441 7.56473 19.5036 6.90262 18.257 5.70037C18.0241 5.47576 17.6532 5.48248 17.4285 5.71537C17.2039 5.94834 17.2105 6.31919 17.4435 6.54388C18.9097 7.95793 20.8391 8.73659 22.8761 8.73659C23.6644 8.73659 24.4353 8.62128 25.1765 8.39308C25.1784 8.42823 25.1779 10.8519 25.1779 10.8519C25.1779 13.7071 22.8547 16.03 19.9991 16.03C17.1435 16.03 14.8202 13.7071 14.8202 10.8519ZM20 21.1669C18.4648 21.1669 17.1667 20.02 16.9804 18.4984C16.9651 18.3749 16.9574 18.2492 16.9574 18.1247V16.4245C17.8612 16.9197 18.8978 17.2018 19.9991 17.2018C21.1012 17.2018 22.1384 16.9192 23.0427 16.4233V18.1248C23.0427 18.2431 23.0357 18.3626 23.0216 18.4816C22.8437 20.0125 21.5449 21.1669 20 21.1669Z" fill="black"/>
<path d="M24.8523 32.8603L21.9935 32.4449L20.715 29.8548C20.5806 29.5826 20.3087 29.4136 20.0051 29.4136C19.7015 29.4136 19.4295 29.5827 19.2952 29.8548L18.0167 32.445L15.1578 32.8604C14.8575 32.9041 14.6125 33.1106 14.5188 33.3993C14.425 33.688 14.5018 33.9989 14.7192 34.2107L16.7878 36.2269L16.2995 39.0737C16.2482 39.3728 16.3688 39.6695 16.6144 39.8479C16.8599 40.0263 17.1793 40.0495 17.4481 39.9082L20.0051 38.564L22.5621 39.9082C22.6789 39.9696 22.8054 39.9999 22.9311 39.9999C23.0946 39.9999 23.257 39.9487 23.3957 39.8479C23.6413 39.6695 23.762 39.3728 23.7107 39.0736L23.2223 36.2269L25.2909 34.2107C25.5083 33.9989 25.5851 33.688 25.4913 33.3993C25.3977 33.1106 25.1527 32.9041 24.8523 32.8603ZM19.6642 30.3735L19.6646 30.3743C19.6644 30.374 19.6643 30.3737 19.6642 30.3735C19.6641 30.3735 19.6641 30.3735 19.6642 30.3735ZM22.2613 35.5272C22.0747 35.7091 21.9896 35.9711 22.0336 36.2279L22.4256 38.5125L20.3734 37.4337C20.1426 37.3125 19.8673 37.3126 19.6367 37.4337L17.5846 38.5125L17.9766 36.2279C18.0206 35.971 17.9356 35.7091 17.7488 35.5271L16.0889 33.9092L18.3829 33.576C18.6409 33.5385 18.8638 33.3765 18.979 33.1429L20.0051 31.0642L21.031 33.1427C21.1463 33.3765 21.3692 33.5385 21.6272 33.5759L23.9213 33.9092L22.2613 35.5272Z" fill="#FF2525"/>
<path d="M11.6951 32.8603L8.83626 32.4449L7.55775 29.8548C7.42338 29.5826 7.15143 29.4136 6.84784 29.4136C6.54425 29.4136 6.2723 29.5827 6.138 29.8548L4.8595 32.445L2.00062 32.8604C1.70023 32.9041 1.45531 33.1106 1.36156 33.3993C1.26781 33.688 1.34461 33.9989 1.56195 34.2107L3.6306 36.2269L3.14225 39.0737C3.091 39.3728 3.21162 39.6695 3.45717 39.8479C3.70271 40.0263 4.02208 40.0495 4.29083 39.9082L6.84784 38.564L9.40492 39.9082C9.52172 39.9696 9.64812 39.9999 9.7739 39.9999C9.93734 39.9999 10.0998 39.9487 10.2385 39.8479C10.4841 39.6695 10.6048 39.3728 10.5534 39.0736L10.0651 36.2269L12.1336 34.2107C12.3511 33.9989 12.4279 33.688 12.3341 33.3993C12.2404 33.1106 11.9955 32.9041 11.6951 32.8603ZM6.5069 30.3735L6.50729 30.3743C6.50722 30.374 6.50706 30.3737 6.5069 30.3735ZM9.10406 35.5272C8.91743 35.7091 8.83235 35.9711 8.87641 36.2279L9.26836 38.5125L7.21619 37.4337C6.98549 37.3126 6.71018 37.3126 6.47948 37.4337L4.42739 38.5125L4.81934 36.2279C4.8634 35.971 4.77833 35.7091 4.59161 35.5271L2.93163 33.9092L5.22567 33.576C5.48371 33.5385 5.7066 33.3765 5.82175 33.1429L6.84784 31.0642L7.87376 33.1427C7.98908 33.3765 8.21196 33.5385 8.46993 33.5759L10.764 33.9092L9.10406 35.5272Z" fill="#FF2525"/>
<path d="M38.6384 33.3992C38.5447 33.1105 38.2997 32.904 37.9993 32.8603L35.1405 32.4449L33.862 29.8548C33.7276 29.5826 33.4556 29.4136 33.152 29.4136C32.8485 29.4136 32.5765 29.5827 32.4422 29.8548L31.1637 32.445L28.3048 32.8604C28.0044 32.9041 27.7595 33.1106 27.6658 33.3993C27.572 33.688 27.6488 33.9989 27.8662 34.2107L29.9348 36.2269L29.4464 39.0737C29.3952 39.3728 29.5158 39.6695 29.7614 39.8479C30.0069 40.0263 30.3263 40.0495 30.595 39.9082L33.152 38.564L35.7091 39.9082C35.8259 39.9696 35.9523 39.9999 36.0781 39.9999C36.2415 39.9999 36.404 39.9487 36.5427 39.8479C36.7883 39.6695 36.909 39.3728 36.8576 39.0736L36.3693 36.2269L38.4379 34.2107C38.6553 33.9988 38.7322 33.688 38.6384 33.3992ZM32.8111 30.3735L32.8115 30.3743C32.8113 30.374 32.8112 30.3737 32.8111 30.3735C32.811 30.3735 32.811 30.3735 32.8111 30.3735ZM35.4082 35.5272C35.2216 35.7091 35.1365 35.9711 35.1805 36.2279L35.5725 38.5125L33.5203 37.4337C33.2896 37.3126 33.0143 37.3126 32.7836 37.4337L30.7315 38.5125L31.1235 36.2279C31.1675 35.971 31.0825 35.7091 30.8957 35.5271L29.2357 33.9092L31.5298 33.576C31.7878 33.5385 32.0107 33.3765 32.1259 33.1429L33.152 31.0642L34.1779 33.1427C34.2932 33.3765 34.5161 33.5385 34.7741 33.5759L37.0682 33.9092L35.4082 35.5272Z" fill="#FF2525"/>
</g>
<defs>
<clipPath id="clip0">
<rect width="40" height="40" fill="white"/>
</clipPath>
</defs>
</svg>
