<svg width="40" height="40" viewBox="0 0 40 40" fill="none" xmlns="http://www.w3.org/2000/svg">
<g clip-path="url(#clip0)">
<path d="M30.9675 5.86483C31.8269 5.86483 32.61 6.36823 32.61 6.92046C32.61 7.27675 32.8989 7.56562 33.2552 7.56562C33.6115 7.56562 33.9003 7.27675 33.9003 6.92046C33.9003 5.80497 32.9197 4.87188 31.6127 4.63593V3.87075C31.6127 3.51446 31.3238 3.22559 30.9675 3.22559C30.6112 3.22559 30.3223 3.51446 30.3223 3.87075V4.64507C29.1448 4.81644 28.2495 5.7908 28.178 6.97842C28.178 8.47918 29.5688 9.09725 30.6868 9.59403C31.7947 10.0861 32.467 10.4326 32.467 11.0844C32.467 11.6883 31.7806 12.1986 30.9675 12.1986C30.1081 12.1986 29.325 11.6952 29.325 11.143C29.325 10.7867 29.0361 10.4978 28.6798 10.4978C28.3235 10.4978 28.0347 10.7867 28.0347 11.143C28.0347 12.2585 29.0153 13.1912 30.3223 13.4275V14.1933C30.3223 14.5496 30.6112 14.8385 30.9675 14.8385C31.3238 14.8385 31.6127 14.5496 31.6127 14.1933V13.419C32.7902 13.2476 33.6855 12.2733 33.7573 11.0857C33.7573 9.54741 32.3457 8.91989 31.2113 8.41586C30.1261 7.93388 29.4696 7.59712 29.4696 6.97968C29.4683 6.37516 30.1548 5.86483 30.9675 5.86483Z" fill="black"/>
<path d="M30.9678 0C25.9795 0 21.9355 4.04391 21.9355 9.03226C21.9355 14.0206 25.9795 18.0645 30.9678 18.0645C35.9561 18.0645 40.0001 14.0206 40.0001 9.03226C39.9947 4.04612 35.9539 0.00535534 30.9678 0ZM30.9678 16.7742C26.692 16.7742 23.2259 13.308 23.2259 9.03226C23.2259 4.75649 26.692 1.29032 30.9678 1.29032C35.2436 1.29032 38.7097 4.75649 38.7097 9.03226C38.705 13.3061 35.2417 16.7695 30.9678 16.7742Z" fill="black"/>
<path d="M26.3645 5.1616C26.5377 5.1616 26.7038 5.09166 26.825 4.96817C27.0295 4.75806 27.2497 4.564 27.4838 4.38728C27.7688 4.17369 27.8265 3.76921 27.6126 3.48412C27.399 3.19902 26.9945 3.14137 26.7094 3.35527C26.4237 3.57138 26.1544 3.80859 25.9036 4.0647C25.7218 4.25024 25.6689 4.52683 25.7697 4.76625C25.8702 5.00566 26.1046 5.1616 26.3645 5.1616Z" fill="#FF2525"/>
<path d="M28.6454 14.3543C27.1298 13.6937 25.968 12.4179 25.4517 10.8472C24.9351 9.27649 25.113 7.56026 25.9409 6.12912C26.0682 5.92908 26.0754 5.67549 25.9598 5.46852C25.8442 5.26156 25.6246 5.1346 25.3877 5.13775C25.1509 5.14122 24.9347 5.27384 24.8248 5.48396C23.8133 7.23295 23.5959 9.33036 24.2269 11.2498C24.8579 13.1692 26.2774 14.7285 28.1294 15.5363C28.4529 15.6657 28.8208 15.5148 28.9604 15.1954C29.1 14.876 28.9604 14.5036 28.6454 14.3543Z" fill="#FF2525"/>
<path d="M29.3111 19.3547H20V14.8385C20 13.087 18.4057 9.67725 15.4839 9.67725H14.8387C14.1261 9.67725 13.5484 10.255 13.5484 10.9676V16.8282C13.5487 18.936 11.84 20.645 9.73223 20.645H6.45161V19.9998C6.45161 19.6435 6.16274 19.3547 5.80645 19.3547H0.645161C0.288873 19.3547 0 19.6435 0 19.9998V38.7095C0 39.0658 0.288873 39.3547 0.645161 39.3547H5.80645C6.16274 39.3547 6.45161 39.0658 6.45161 38.7095V37.4192H8.12531C9.87683 39.0822 12.202 40.0064 14.6176 39.9998H27.4194C29.0345 39.9957 30.3994 38.8009 30.6168 37.2006L32.5098 23.007C32.6326 22.0849 32.3516 21.1547 31.7389 20.455C31.1262 19.7554 30.241 19.3544 29.3111 19.3547ZM5.16129 38.0643H1.29032V20.645H5.16129V38.0643ZM29.3369 37.032C29.2052 37.9909 28.3874 38.7067 27.4194 38.7095H14.6176C12.4505 38.7155 10.3714 37.8542 8.84325 36.3179C8.72228 36.1969 8.55815 36.1289 8.3871 36.1289H6.45161V21.9353H9.73223C12.5526 21.9353 14.839 19.6486 14.8387 16.8282V10.9676H15.4839C17.7038 10.9676 18.7097 13.9354 18.7097 14.8385V19.9998C18.7097 20.3561 18.9986 20.645 19.3548 20.645H29.3111C29.8693 20.645 30.4004 20.8863 30.768 21.3065C31.1353 21.7268 31.3036 22.2853 31.2289 22.8385L31.0046 24.5257C30.9917 24.5257 30.9807 24.5185 30.9677 24.5185H25.8064C25.4502 24.5185 25.1613 24.8074 25.1613 25.1636C25.1613 25.5199 25.4502 25.8088 25.8064 25.8088H30.8329L30.3169 29.6798H25.1613C24.805 29.6798 24.5161 29.9686 24.5161 30.3249C24.5161 30.6812 24.805 30.9701 25.1613 30.9701H30.1452L29.7136 34.2031C29.7014 34.1997 29.6903 34.1934 29.6774 34.1934H24.5161C24.1598 34.1934 23.871 34.4823 23.871 34.8385C23.871 35.1948 24.1598 35.4837 24.5161 35.4837H29.5426L29.3369 37.032Z" fill="black"/>
</g>
<defs>
<clipPath id="clip0">
<rect width="40" height="40" fill="white"/>
</clipPath>
</defs>
</svg>
