<svg width="35" height="35" viewBox="0 0 35 35" fill="none" xmlns="http://www.w3.org/2000/svg">
<g clip-path="url(#clip0)">
<path d="M33.5591 14.6231L33.1089 14.2864C32.5482 13.8666 32.3492 13.1237 32.6248 12.4799L32.8464 11.9633C33.2966 10.912 33.2269 9.74105 32.6552 8.75092C32.0833 7.76051 31.1043 7.11457 29.9687 6.97919L29.4106 6.91244C28.715 6.82939 28.1711 6.28546 28.088 5.59012L28.0215 5.03176C27.8859 3.89637 27.2399 2.91718 26.2498 2.34547C25.2594 1.7735 24.0885 1.70381 23.0375 2.15428L22.5205 2.37565C21.8767 2.65149 21.1338 2.45228 20.7141 1.89153L20.3773 1.44159C19.6922 0.525952 18.6435 0.000976562 17.4999 0.000976562C16.3562 0.000976562 15.3076 0.525952 14.6224 1.44159L14.2854 1.89153C13.8656 2.45255 13.123 2.65149 12.479 2.37565L11.9623 2.15428C10.911 1.70407 9.74007 1.7735 8.74993 2.34547C7.75953 2.91718 7.11359 3.89637 6.97821 5.03176L6.91145 5.58985C6.82841 6.28546 6.28447 6.82939 5.58887 6.91244L5.03078 6.97919C3.89539 7.11457 2.9162 7.76051 2.34449 8.75092C1.77252 9.74105 1.7031 10.912 2.1533 11.9633L2.37467 12.4799C2.65051 13.1237 2.45131 13.8666 1.89055 14.2864L1.44061 14.6231C0.525242 15.3083 0 16.3572 0 17.5006C0 18.6443 0.525242 19.6931 1.44061 20.3783L1.89082 20.7151C2.45157 21.1348 2.65051 21.8777 2.37494 22.5215L2.1533 23.0382C1.7031 24.0895 1.77279 25.2604 2.34449 26.2505C2.91647 27.2409 3.89539 27.8869 5.03105 28.0223L5.58914 28.089C6.28474 28.1721 6.82867 28.716 6.91172 29.4113L6.97821 29.9697C7.11386 31.1051 7.7598 32.0843 8.74993 32.656C9.74033 33.2277 10.9112 33.2974 11.9623 32.8472L12.4792 32.6258C13.123 32.35 13.8659 32.5492 14.2857 33.1099L14.6224 33.5599C15.3076 34.4755 16.3565 35.0007 17.5001 35.0007C18.6435 35.0007 19.6924 34.4755 20.3776 33.5599L20.7143 33.1099C21.1341 32.5492 21.8767 32.35 22.521 32.6261L23.0377 32.8472C24.0887 33.2974 25.2597 33.2279 26.2501 32.6562C27.2402 32.0843 27.8861 31.1051 28.0218 29.9697L28.0883 29.4116C28.1713 28.716 28.7153 28.1721 29.4109 28.089L29.9689 28.0225C31.1043 27.8869 32.0838 27.2409 32.6555 26.2508C33.2272 25.2604 33.2969 24.0895 32.8464 23.0382L32.6253 22.5218C32.3495 21.8777 32.5484 21.1348 33.1094 20.7151L33.5594 20.3783C34.475 19.6931 35 18.6443 35 17.5009C34.9997 16.3572 34.4745 15.3083 33.5591 14.6231ZM32.7399 19.2838L32.2899 19.6205C31.2221 20.4195 30.8429 21.8339 31.3684 23.0601L31.5895 23.5765C31.8686 24.2278 31.8253 24.9533 31.4712 25.5669C31.1169 26.1808 30.5102 26.5808 29.8066 26.665L29.2485 26.7314C27.9241 26.8895 26.8888 27.9251 26.7307 29.2495L26.664 29.8076C26.5798 30.5112 26.1798 31.1179 25.5662 31.4722C24.9526 31.8263 24.2271 31.8696 23.5758 31.5905L23.0591 31.3692C21.8329 30.8439 20.4187 31.2231 19.6195 32.2909L19.2828 32.7409C18.8582 33.3081 18.2083 33.6336 17.4999 33.6336C16.7912 33.6336 16.1412 33.3081 15.7167 32.7409L15.3799 32.2909C14.8216 31.5446 13.9628 31.1347 13.0779 31.1347C12.6963 31.1347 12.3099 31.2111 11.9406 31.3692L11.4239 31.5905C10.7724 31.8696 10.0471 31.8263 9.43325 31.4722C8.81962 31.1179 8.41962 30.5112 8.33551 29.8076L8.26902 29.2495C8.11067 27.9251 7.07541 26.8898 5.75095 26.7317L5.19287 26.665C4.48925 26.5808 3.88257 26.1808 3.52822 25.5672C3.17415 24.9536 3.13089 24.2281 3.40993 23.5768L3.6313 23.0601C4.15654 21.8342 3.77736 20.4197 2.70979 19.6205L2.25958 19.2838C1.69242 18.8592 1.36718 18.2093 1.36718 17.5006C1.36718 16.7922 1.69242 16.1422 2.25985 15.7177L2.70979 15.3809C3.77763 14.5817 4.15681 13.1673 3.6313 11.9414L3.4102 11.4247C3.13116 10.7734 3.17441 10.0479 3.52849 9.43424C3.88284 8.82061 4.48952 8.4206 5.19314 8.33649L5.75122 8.26973C7.07567 8.11165 8.11094 7.07639 8.26902 5.75194L8.33577 5.19385C8.41989 4.49023 8.81989 3.88355 9.43352 3.5292C10.0471 3.17486 10.7727 3.13187 11.4239 3.41091L11.9406 3.63201C13.1666 4.15725 14.581 3.77834 15.3802 2.7105L15.7169 2.26056C16.1415 1.69339 16.7914 1.36789 17.4999 1.36789C18.2083 1.36789 18.8582 1.69339 19.2828 2.26056L19.6198 2.71077C20.4187 3.77861 21.8334 4.15752 23.0591 3.63228L23.5758 3.41091C24.2271 3.13187 24.9526 3.17513 25.5662 3.5292C26.1798 3.88355 26.5801 4.49023 26.664 5.19385L26.7307 5.75194C26.8888 7.07639 27.9243 8.11165 29.2485 8.26973L29.8066 8.33649C30.5102 8.4206 31.1169 8.82061 31.4712 9.43424C31.8256 10.0479 31.8686 10.7734 31.5898 11.4247L31.3684 11.9414C30.8432 13.1675 31.2221 14.5817 32.2899 15.3809L32.7399 15.7177C33.3073 16.1422 33.6325 16.7922 33.6325 17.5009C33.6325 18.2093 33.3073 18.8592 32.7399 19.2838Z" fill="#1E1E1E"/>
<path d="M17.4999 3.97314C15.4377 3.97314 13.4574 4.42549 11.6144 5.31762C11.2745 5.48211 11.1324 5.89093 11.2966 6.23059C11.4611 6.57051 11.8702 6.71257 12.2099 6.54808C13.8657 5.74674 15.6454 5.34032 17.4999 5.34032C24.2047 5.34032 29.6595 10.7951 29.6595 17.5002C29.6595 24.205 24.2047 29.6598 17.4999 29.6598C10.7949 29.6598 5.34005 24.205 5.34005 17.5002C5.34005 14.7538 6.23326 12.1626 7.92327 10.0063C8.15612 9.70915 8.10405 9.2795 7.80685 9.04639C7.50965 8.81354 7.08 8.86588 6.84715 9.16281C4.96702 11.5623 3.97314 14.4451 3.97314 17.5002C3.97314 24.9588 10.0413 31.027 17.4999 31.027C24.9585 31.027 31.0267 24.9588 31.0267 17.5002C31.0267 10.0413 24.9585 3.97314 17.4999 3.97314Z" fill="#1E1E1E"/>
<path d="M7.50537 14.0195L6.98466 14.6833C6.75154 14.9805 6.80362 15.4102 7.10055 15.643C7.39776 15.8762 7.82741 15.8243 8.06026 15.5271L8.34624 15.1629V19.684H7.88856C7.51098 19.684 7.20496 19.99 7.20496 20.3676C7.20496 20.7452 7.51098 21.0512 7.88856 21.0512H10.1476C10.5249 21.0512 10.8312 20.7452 10.8312 20.3676C10.8312 19.99 10.5249 19.684 10.1476 19.684H9.71343V14.4414C9.71343 14.0638 9.40715 13.7578 9.02984 13.7578H8.04317C7.83328 13.7578 7.63488 13.8542 7.50537 14.0195Z" fill="#1E1E1E"/>
<path d="M12.9985 21.051H13.3536C14.4826 21.051 15.4009 20.1327 15.4009 19.0037V15.6902C15.4009 14.5612 14.4824 13.6426 13.3536 13.6426H12.9985C11.8695 13.6426 10.9512 14.5612 10.9512 15.6902V19.0037C10.9512 20.1327 11.8695 21.051 12.9985 21.051ZM12.3184 15.6902C12.3184 15.315 12.6236 15.0098 12.9985 15.0098H13.3536C13.7285 15.0098 14.0338 15.315 14.0338 15.6902V19.0037C14.0338 19.3786 13.7285 19.6838 13.3536 19.6838H12.9985C12.6236 19.6838 12.3184 19.3786 12.3184 19.0037V15.6902Z" fill="#1E1E1E"/>
<path d="M18.5074 21.051C19.6364 21.051 20.5547 20.1327 20.5547 19.0037V15.6902C20.5547 14.5612 19.6362 13.6426 18.5074 13.6426H18.1523C17.0233 13.6426 16.105 14.5612 16.105 15.6902V19.0037C16.105 20.1327 17.0233 21.051 18.1523 21.051H18.5074ZM17.4722 19.0037V15.6902C17.4722 15.315 17.7774 15.0098 18.1523 15.0098H18.5074C18.8823 15.0098 19.1876 15.315 19.1876 15.6902V19.0037C19.1876 19.3786 18.8823 19.6838 18.5074 19.6838H18.1523C17.7774 19.6838 17.4722 19.3789 17.4722 19.0037Z" fill="#1E1E1E"/>
<path d="M27.5347 13.5599C27.2295 13.338 26.802 13.4055 26.5798 13.7107L22.2363 19.6839C22.0142 19.9894 22.0817 20.4169 22.3872 20.6388C22.5084 20.7269 22.6491 20.7697 22.7885 20.7697C22.9998 20.7697 23.2083 20.6719 23.3421 20.4879L27.6856 14.5148C27.9078 14.2095 27.8399 13.782 27.5347 13.5599Z" fill="#1E1E1E"/>
<path d="M11.3427 10.9564C11.5021 10.9564 11.6623 10.9008 11.7918 10.7879C13.3721 9.4079 15.3991 8.64794 17.4998 8.64794C19.4651 8.64794 21.3185 9.28827 22.8598 10.4995C23.1568 10.7329 23.5864 10.6814 23.8198 10.3844C24.0529 10.0878 24.0014 9.65784 23.7047 9.42472C21.9199 8.02203 19.7743 7.28076 17.4998 7.28076C15.0685 7.28076 12.7219 8.16062 10.8928 9.75797C10.6084 10.0063 10.579 10.4381 10.8273 10.7225C10.9624 10.8774 11.152 10.9564 11.3427 10.9564Z" fill="#FF2525"/>
<path d="M11.2169 25.2367C13.0011 26.6391 15.147 27.3804 17.4215 27.3804C18.9996 27.3804 20.5105 27.0247 21.9124 26.3235C22.2499 26.1547 22.3866 25.744 22.2178 25.4063C22.0488 25.0687 21.6384 24.932 21.3006 25.1008C20.0904 25.7064 18.7852 26.0132 17.4215 26.0132C15.4565 26.0132 13.6028 25.3731 12.0615 24.1616C11.7648 23.9285 11.3349 23.9801 11.1018 24.2767C10.8684 24.5737 10.9199 25.0033 11.2169 25.2367Z" fill="#FF2525"/>
<path d="M24.2126 24.0675C24.0614 23.841 23.7784 23.7235 23.5111 23.7769C23.2275 23.8338 23.0043 24.0709 22.9666 24.358C22.9298 24.6368 23.0745 24.9174 23.3223 25.0499C23.5712 25.1831 23.8841 25.1465 24.0964 24.9604C24.3517 24.7358 24.3971 24.3497 24.2126 24.0675Z" fill="#FF2525"/>
<path d="M23.0522 13.4292C22.1651 13.4292 21.4434 14.1507 21.4434 15.0378C21.4434 15.9248 22.1651 16.6466 23.0522 16.6466C23.939 16.6466 24.6608 15.9248 24.6608 15.0378C24.6608 14.1507 23.939 13.4292 23.0522 13.4292ZM23.0522 15.2794C22.919 15.2794 22.8105 15.171 22.8105 15.0378C22.8105 14.9045 22.919 14.7961 23.0522 14.7961C23.1855 14.7961 23.2936 14.9045 23.2936 15.0378C23.2936 15.171 23.1855 15.2794 23.0522 15.2794Z" fill="#1E1E1E"/>
<path d="M25.2378 19.2041C25.2378 20.0911 25.9596 20.8129 26.8464 20.8129C27.7334 20.8129 28.4552 20.0911 28.4552 19.2041C28.4552 18.317 27.7334 17.5952 26.8464 17.5952C25.9596 17.5952 25.2378 18.317 25.2378 19.2041ZM27.088 19.2041C27.088 19.3373 26.9799 19.4457 26.8466 19.4457C26.7134 19.4457 26.605 19.3373 26.605 19.2041C26.605 19.0708 26.7134 18.9624 26.8466 18.9624C26.9799 18.9624 27.088 19.0708 27.088 19.2041Z" fill="#1E1E1E"/>
<path d="M8.85038 7.75593C8.9604 8.02002 9.22903 8.19038 9.51475 8.17703C9.79673 8.16368 10.0445 7.97088 10.1316 7.70332C10.2194 7.43309 10.1238 7.12441 9.8974 6.95217C9.66642 6.77647 9.34385 6.76632 9.10192 6.92627C8.83222 7.10438 8.72862 7.45872 8.85038 7.75593Z" fill="#FF2525"/>
</g>
<defs>
<clipPath id="clip0">
<rect width="35" height="35" fill="white"/>
</clipPath>
</defs>
</svg>
