<svg width="70" height="79" viewBox="0 0 70 79" fill="none" xmlns="http://www.w3.org/2000/svg">
<path d="M52.4857 15.3518H38.3306V31.9507H21.8163V46.2048H38.3306V62.8036H52.4857V46.2048H69V31.9507H52.4857V15.3518Z" fill="white"/>
<path d="M38.8024 1C18.6057 2.20973 1 18.9841 1 39.4998C1 60.0155 18.6057 76.7902 38.8024 78V62.8683C26.0838 61.6759 15.9878 50.8835 15.9878 39.4998C15.9878 28.1163 26.0837 17.3241 38.8024 16.1317V1Z" fill="white"/>
<path d="M38.8024 15.3518L38.969 1.43314L52.1249 15.1841L38.8024 15.3518Z" fill="white"/>
<path d="M52.4857 15.3518H38.3306V31.9507H21.8163V46.2048H38.3306V62.8036H52.4857V46.2048H69V31.9507H52.4857V15.3518Z" stroke="white"/>
<path d="M38.8024 1C18.6057 2.20973 1 18.9841 1 39.4998C1 60.0155 18.6057 76.7902 38.8024 78V62.8683C26.0838 61.6759 15.9878 50.8835 15.9878 39.4998C15.9878 28.1163 26.0837 17.3241 38.8024 16.1317V1Z" stroke="white"/>
<path d="M38.8024 15.3518L38.969 1.43314L52.1249 15.1841L38.8024 15.3518Z" stroke="white"/>
</svg>
