<svg width="35" height="35" viewBox="0 0 35 35" fill="none" xmlns="http://www.w3.org/2000/svg">
<g clip-path="url(#clip0)">
<path d="M24.5974 17.2196C26.2655 14.8379 27.1472 12.0421 27.1472 9.13445V2.65151C27.1472 2.33134 26.9248 2.0539 26.6124 1.9842L17.7854 0.0164662C17.6874 -0.0051632 17.586 -0.0051632 17.488 0.0164662L8.66132 1.9842C8.34863 2.0539 8.12646 2.33134 8.12646 2.65151V9.13445C8.12646 12.0421 9.0082 14.8379 10.6763 17.2193C12.3445 19.6009 14.6705 21.385 17.4033 22.3788C17.4786 22.4061 17.5579 22.42 17.6367 22.42C17.7158 22.42 17.7951 22.4061 17.8704 22.3788C20.6031 21.3852 22.9292 19.6009 24.5974 17.2196ZM17.6367 21.0063C15.2703 20.0939 13.2545 18.5173 11.7962 16.435C10.2899 14.2846 9.49365 11.7601 9.49365 9.13445V3.19946L17.6367 1.38419L25.78 3.19946V9.13445C25.78 11.7599 24.9838 14.2844 23.4774 16.435C22.0189 18.5173 20.0031 20.0939 17.6367 21.0063Z" fill="white"/>
<path d="M24.6171 4.67934C24.6171 4.35891 24.3949 4.08173 24.0822 4.01204L17.7857 2.60826C17.6877 2.58663 17.5859 2.58663 17.4879 2.60826L11.1911 4.01204C10.8226 4.09428 10.5906 4.45958 10.6728 4.82808C10.7548 5.19658 11.1204 5.42863 11.4886 5.34638L17.6367 3.97599L23.2499 5.22729V9.13419C23.2499 11.2378 22.612 13.2603 21.4053 14.9835C20.4357 16.3677 19.1374 17.4893 17.6367 18.2431C16.136 17.4895 14.8379 16.3677 13.8684 14.9835C12.8245 13.4932 12.1976 11.7511 12.0555 9.94596C12.0435 9.79535 12.0349 9.64315 12.0299 9.49308C12.0168 9.1155 11.6982 8.82043 11.323 8.83325C10.9457 8.84633 10.6504 9.16276 10.6635 9.54007C10.6693 9.71017 10.679 9.88294 10.6923 10.0533C10.8536 12.1017 11.5647 14.0777 12.7484 15.7677C13.9178 17.4369 15.5087 18.7699 17.3496 19.6223C17.4407 19.6645 17.5389 19.6856 17.6369 19.6856C17.7349 19.6856 17.8329 19.6645 17.924 19.6223C19.7652 18.7697 21.3561 17.4369 22.5252 15.7677C23.8937 13.8139 24.6173 11.5198 24.6173 9.13419V4.67934H24.6171Z" fill="white"/>
<path d="M15.6891 12.6827C15.8087 12.8242 15.9804 12.911 16.1655 12.9233C16.1807 12.9244 16.1959 12.9249 16.2112 12.9249C16.3799 12.9249 16.5436 12.8624 16.6696 12.7484L21.6257 8.26445C21.9055 8.01131 21.9272 7.57899 21.674 7.29887C21.4206 7.01903 20.9883 6.9974 20.7085 7.25054L16.2766 11.26L15.0117 9.76382C14.7681 9.4757 14.3366 9.43938 14.0485 9.68318C13.7601 9.92698 13.724 10.3582 13.9676 10.6466L15.6891 12.6827Z" fill="white"/>
<path d="M11.8804 22.6238C11.5201 22.1501 10.9965 21.8489 10.4061 21.7752C9.81569 21.7018 9.2341 21.8649 8.7684 22.2353C8.5505 22.4086 8.37453 22.6164 8.24182 22.8452L8.04101 22.5835C7.86264 22.3515 7.76464 22.0625 7.76464 21.7699V15.6028C7.76464 14.343 6.73951 13.3179 5.47967 13.3179C4.29459 13.3179 3.31673 14.2076 3.20484 15.3871L2.47318 23.1034C2.40883 23.7793 2.59949 24.4498 3.01205 24.9945L8.82261 32.5605V34.3165C8.82261 34.6941 9.12862 35.0001 9.5062 35.0001C9.88351 35.0001 10.1898 34.6941 10.1898 34.3165V32.3282C10.1898 32.1776 10.1399 32.0313 10.0483 31.9119L4.09913 24.1654C3.89645 23.8978 3.80246 23.5665 3.83423 23.2324L4.56616 15.5163C4.61102 15.0423 5.00382 14.6851 5.47967 14.6851C5.98595 14.6851 6.39745 15.0968 6.39745 15.6028V21.7699C6.39745 22.3622 6.59612 22.9467 6.95687 23.4161L8.38788 25.2797C8.39002 25.2827 8.39215 25.2856 8.39429 25.2885L9.54892 26.7922C9.7791 27.0915 10.2082 27.1479 10.5076 26.9179C10.8069 26.688 10.8632 26.2589 10.6333 25.9593L9.47496 24.4509C9.20659 24.0957 9.27068 23.583 9.61995 23.3053C9.79539 23.1656 10.0146 23.1042 10.2371 23.1317C10.4595 23.1595 10.6568 23.2733 10.7925 23.4516L13.5522 27.0784C14.0954 27.7922 14.3944 28.6793 14.3944 29.5762V34.3165C14.3944 34.6941 14.7005 35.0001 15.078 35.0001C15.4556 35.0001 15.7616 34.6941 15.7616 34.3165V29.5762C15.7616 28.3821 15.3635 27.201 14.6404 26.2506L11.8804 22.6238Z" fill="white"/>
<path d="M32.609 23.1034L31.8771 15.3871C31.7652 14.2076 30.7871 13.3179 29.6023 13.3179C28.3424 13.3179 27.3173 14.343 27.3173 15.6028V21.7699C27.3173 22.0625 27.219 22.3515 27.0409 22.5835L26.8399 22.8452C26.7074 22.6166 26.5314 22.4089 26.3135 22.2353C25.8478 21.8649 25.2663 21.7018 24.6759 21.7752C24.0854 21.8489 23.5618 22.1501 23.2016 22.6238L20.4418 26.2506C19.7187 27.201 19.3203 28.3821 19.3203 29.5765V34.3165C19.3203 34.6941 19.6266 35.0001 20.0039 35.0001C20.3815 35.0001 20.6875 34.6941 20.6875 34.3165V29.5762C20.6875 28.6793 20.9866 27.7922 21.5297 27.0784L24.2895 23.4516C24.4254 23.2733 24.6227 23.1598 24.8451 23.1317C25.0676 23.1042 25.2868 23.1656 25.4623 23.3053C25.8113 23.583 25.8756 24.0957 25.607 24.4509L24.4489 25.9593C24.219 26.2589 24.2753 26.688 24.5746 26.9179C24.874 27.1479 25.3031 27.0915 25.5333 26.7922L26.6876 25.2885C26.6898 25.2859 26.6917 25.2832 26.6938 25.2805L28.1253 23.4164C28.4858 22.9467 28.6845 22.3622 28.6845 21.7699V15.6028C28.6845 15.0968 29.0963 14.6851 29.6023 14.6851C30.0781 14.6851 30.4709 15.0423 30.516 15.5163L31.248 23.2324C31.2795 23.5667 31.1855 23.8978 30.9855 24.1619L25.0337 31.9119C24.9421 32.0313 24.8924 32.1779 24.8924 32.3285V34.3165C24.8924 34.6941 25.1984 35.0001 25.576 35.0001C25.9536 35.0001 26.2596 34.6941 26.2596 34.3165V32.5605L32.0726 24.9911C32.4824 24.4498 32.6731 23.7793 32.609 23.1034Z" fill="white"/>
<path d="M10.9606 7.66289C11.2012 7.82338 11.527 7.81323 11.7561 7.63672C11.9716 7.47063 12.0728 7.18064 12.0001 6.91735C11.9224 6.6351 11.6698 6.42788 11.3764 6.41186C11.0858 6.39611 10.8116 6.57341 10.7051 6.84338C10.5881 7.14005 10.6963 7.48505 10.9606 7.66289Z" fill="white"/>
</g>
<defs>
<clipPath id="clip0">
<rect width="35" height="35" fill="white"/>
</clipPath>
</defs>
</svg>
